<svg viewBox="0 0 453 453" fill="none" xmlns="http://www.w3.org/2000/svg">
<path d="M360.703 88.1719C360.703 65.7281 343.069 46.4906 319.022 46.4906H139.472C117.028 46.4906 97.7906 64.125 97.7906 88.1719C97.7906 99.3938 102.6 109.012 109.013 117.028L197.184 208.406C201.994 213.216 203.597 219.628 203.597 226.041C203.597 232.453 200.391 238.866 197.184 243.675L109.013 335.053C100.997 343.069 97.7906 352.687 97.7906 363.909C97.7906 386.353 115.425 405.591 139.472 405.591H319.022C341.466 405.591 360.703 387.956 360.703 363.909C360.703 352.687 355.894 343.069 349.481 335.053L261.309 243.675C256.5 238.866 254.897 232.453 254.897 226.041C254.897 219.628 258.103 213.216 261.309 208.406L349.481 117.028C357.497 109.012 360.703 99.3938 360.703 88.1719Z" fill="#D4A246"/>
<path d="M294.975 365.512H163.519C157.106 365.512 153.9 357.497 158.709 352.687L224.438 294.975C227.644 291.769 230.85 291.769 234.056 294.975L299.784 352.687C304.594 357.497 301.388 365.512 294.975 365.512Z" fill="white"/>
<path d="M200.391 144.281H259.706C267.722 144.281 270.928 153.9 264.516 158.709L234.056 184.359C230.85 187.566 226.041 187.566 222.834 184.359L192.375 158.709C185.963 153.9 190.772 144.281 197.184 144.281H200.391Z" fill="white"/>
</svg>
